<svg width="20" height="20" viewBox="0 0 20 20" fill="none" xmlns="http://www.w3.org/2000/svg">
<path d="M1 8C1 6.08611 1.00212 4.75129 1.13753 3.74416C1.26907 2.76579 1.50966 2.2477 1.87868 1.87868C2.2477 1.50966 2.76579 1.26907 3.74416 1.13753C4.75129 1.00212 6.08611 1 8 1H12C13.9139 1 15.2487 1.00212 16.2558 1.13753C17.2342 1.26907 17.7523 1.50966 18.1213 1.87868C18.4903 2.2477 18.7309 2.76579 18.8625 3.74416C18.9979 4.75129 19 6.08611 19 8V12C19 13.9139 18.9979 15.2487 18.8625 16.2558C18.7309 17.2342 18.4903 17.7523 18.1213 18.1213C17.7523 18.4903 17.2342 18.7309 16.2558 18.8625C15.2487 18.9979 13.9139 19 12 19H8C6.08611 19 4.75129 18.9979 3.74416 18.8625C2.76579 18.7309 2.2477 18.4903 1.87868 18.1213C1.50966 17.7523 1.26907 17.2342 1.13753 16.2558C1.00212 15.2487 1 13.9139 1 12V8Z" stroke="white" stroke-width="2"/>
</svg>
