<?xml version="1.0" encoding="iso-8859-1"?>
<!-- Uploaded to: SVG Repo, www.svgrepo.com, Generator: SVG Repo Mixer Tools -->
<svg fill="#000000" height="800px" width="800px" version="1.1" id="Layer_1" xmlns="http://www.w3.org/2000/svg" xmlns:xlink="http://www.w3.org/1999/xlink" 
	 viewBox="0 0 508.004 508.004" xml:space="preserve">
<g>
	<g>
		<g>
			<path d="M134.164,178.778c22.276,0,40.404-18.116,40.404-40.392c0-2.208-1.788-4-4-4c-2.212,0-4,1.792-4,4
				c0,17.86-14.536,32.392-32.404,32.392c-17.864,0-32.4-14.532-32.4-32.392c0-17.864,14.536-32.4,32.4-32.4c2.212,0,4-1.792,4-4
				s-1.788-4-4-4c-22.28,0-40.4,18.124-40.4,40.4C93.764,160.658,111.888,178.778,134.164,178.778z"/>
			<path d="M408.764,297.622c-2.212,0-4,1.792-4,4V408.73H353.24v-96.116c0-16.204,0-59.248-40.216-59.248
				c-38.708,0-43.184,32.82-43.184,57.504v97.86h-55.488V210.382h51.524v23.776c0,2.208,1.788,4,4,4h1.16
				c1.464,0,2.812-0.8,3.512-2.084c8.676-15.932,29.52-25.068,57.18-25.068c2.212,0,4-1.792,4-4c0-2.208-1.788-4-4-4
				c-25.42,0-45.84,7.312-57.852,20.388v-17.012c0-2.208-1.788-4-4-4h-59.524c-2.212,0-4,1.792-4,4V412.73c0,2.208,1.788,4,4,4
				h63.488c2.212,0,4-1.792,4-4V310.87c0-35.16,10.196-49.504,35.184-49.504c28.312,0,32.216,24.628,32.216,51.248v100.12
				c0,2.208,1.788,4,4,4h59.52c2.212,0,4-1.792,4.004-4V301.622C412.764,299.414,410.976,297.622,408.764,297.622z"/>
			<path d="M170.668,202.382H99.24c-2.212,0-4,1.792-4,4v206.352c0,2.208,1.788,4,4,4h71.428c2.212,0,4-1.792,4-4.004V206.382
				C174.668,204.174,172.88,202.382,170.668,202.382z M166.668,408.734H103.24V210.382h63.428V408.734z"/>
		</g>
	</g>
</g>
<g>
	<g>
		<path d="M378.76,0.002H129.18C57.948,0.002,0,57.966,0,129.214V378.79c0,71.248,57.948,129.212,129.18,129.212h249.576
			c71.268,0,129.244-57.964,129.248-129.212V129.214C508.004,57.966,450.024,0.002,378.76,0.002z M500.004,378.79
			c0,66.836-54.392,121.212-121.244,121.212H129.18C62.36,500.002,8,445.626,8,378.79V129.214C8,62.378,62.36,8.002,129.18,8.002
			h249.576c66.852,0,121.244,54.376,121.248,121.212V378.79z"/>
	</g>
</g>
<g>
	<g>
		<path d="M480.192,253.97c-2.212,0-4,1.792-4,4v112.02c0,57.564-48.632,106.2-106.2,106.2H138.008
			c-57.568,0-106.2-48.632-106.2-106.2V138.002c0-57.56,48.632-106.192,106.2-106.192H369.08c2.212,0,4-1.792,4-4s-1.788-4-4-4
			H138.008c-61.904,0-114.2,52.292-114.2,114.192v231.992c0,61.904,52.296,114.2,114.2,114.2h231.984
			c61.904,0,114.2-52.296,114.2-114.204V257.97C484.192,255.762,482.404,253.97,480.192,253.97z"/>
	</g>
</g>
<g>
	<g>
		<path d="M449.808,58.19c-20.888-20.884-54.132-34.38-84.7-34.38c-2.212,0-4,1.792-4,4s1.788,4,4,4
			c28.556,0,59.58,12.576,79.044,32.036c0.78,0.78,1.804,1.172,2.828,1.172s2.048-0.392,2.828-1.172
			C451.372,62.282,451.372,59.754,449.808,58.19z"/>
	</g>
</g>
<g>
	<g>
		<path d="M480.192,166.67c-2.212,0-4,1.792-4,4v59.524c0,2.208,1.788,4,4,4c2.212,0,4-1.792,4-4V170.67
			C484.192,168.462,482.404,166.67,480.192,166.67z"/>
	</g>
</g>
</svg>