<?xml version="1.0" encoding="iso-8859-1"?>
<!-- Uploaded to: SVG Repo, www.svgrepo.com, Generator: SVG Repo Mixer Tools -->
<svg fill="#000000" height="800px" width="800px" version="1.1" id="Layer_1" xmlns="http://www.w3.org/2000/svg" xmlns:xlink="http://www.w3.org/1999/xlink" 
	 viewBox="0 0 508 508" xml:space="preserve">
<g>
	<g>
		<path d="M378.764,0H129.18C57.952,0,0,57.964,0,129.212v249.576C0,450.036,57.952,508,129.18,508h249.584
			C450.024,508,508,450.036,508,378.792v-249.58C508,57.964,450.024,0,378.764,0z M500,378.792
			c0,66.836-54.388,121.212-121.236,121.212H129.18C62.36,500.004,8,445.628,8,378.792v-249.58C8,62.376,62.36,8,129.18,8h249.584
			C445.616,8,500,62.376,500,129.212V378.792z"/>
	</g>
</g>
<g>
	<g>
		<path d="M480.192,253.968c-2.208,0-4,1.792-4,4v112.02c0,57.568-48.632,106.204-106.2,106.204H138.004
			c-57.564,0-106.196-48.636-106.196-106.204V138c0-57.56,48.632-106.192,106.196-106.192H369.08c2.208,0,4-1.792,4-4s-1.792-4-4-4
			H138.004C76.104,23.808,23.808,76.1,23.808,138v231.988c0,61.908,52.296,114.204,114.196,114.204h231.988
			c61.904,0,114.2-52.296,114.2-114.204v-112.02C484.192,255.76,482.4,253.968,480.192,253.968z"/>
	</g>
</g>
<g>
	<g>
		<path d="M449.808,58.184c-21.848-21.848-51.272-34.376-80.732-34.376c-2.208,0-4,1.792-4,4s1.792,4,4,4
			c27.356,0,54.72,11.676,75.076,32.032c0.78,0.78,1.804,1.172,2.828,1.172s2.048-0.388,2.828-1.172
			C451.372,62.276,451.372,59.748,449.808,58.184z"/>
	</g>
</g>
<g>
	<g>
		<path d="M480.192,166.668c-2.208,0-4,1.792-4,4v59.524c0,2.208,1.792,4,4,4s4-1.792,4-4v-59.524
			C484.192,168.46,482.4,166.668,480.192,166.668z"/>
	</g>
</g>
<g>
	<g>
		<path d="M197.076,182.54c-0.008,0-0.016,0-0.024,0H138.92c-2.208,0-4,1.792-4,4v43.652c0,2.208,1.792,4,4,4h54.644
			c10.46,0,21.156-3.252,21.156-27.38C214.72,183.3,199.184,182.54,197.076,182.54z M193.56,226.192h-50.64V190.54l54.364-0.008
			c1.576,0,9.432,0.784,9.432,16.28C206.716,226.192,200.028,226.192,193.56,226.192z"/>
	</g>
</g>
<g>
	<g>
		<path d="M212.788,264.904c-6.892-6.884-15.344-6.968-15.736-6.968H138.92c-2.208,0-4,1.788-4,4v55.556c0,2.212,1.792,4,4,4h51.676
			c0.82,0,1.568-0.172,2.224-0.32c0.524-0.124,1.024-0.236,1.488-0.244c17.48-0.432,27.108-11.348,27.108-30.748
			C221.416,279.128,218.512,270.624,212.788,264.904z M194.148,312.932c-1.272,0.02-2.336,0.264-3.116,0.44
			c-0.2,0.044-0.38,0.092-0.544,0.12H142.92V265.94h54.136c0.056,0,5.564,0.12,10.08,4.628c4.168,4.164,6.28,10.764,6.28,19.616
			C213.416,305.176,207.1,312.616,194.148,312.932z"/>
	</g>
</g>
<g>
	<g>
		<g>
			<path d="M297.652,182.604h79.364c2.208,0,4-1.792,4-4v-15.872c0-2.208-1.792-4-4-4h-79.364c-2.208,0-4,1.792-4,4v15.872
				C293.652,180.812,295.444,182.604,297.652,182.604z M301.652,166.732h71.364v7.872h-71.364V166.732z"/>
			<path d="M361.144,285.72c-2.208,0-4,1.788-4,4c0,2.212,1.792,4,4,4h46.676c2.02,0,3.724-1.504,3.972-3.512
				c0.224-1.828,5.252-45.1-18.8-72.308c-12.332-13.948-30-21.02-52.504-21.02c-40.512,0-59.704,22.4-68.672,41.188
				c-9.568,20.044-9.66,39.804-9.652,40.372c-0.016,0.24-0.084,1.392-0.084,3.256c-1.028-9.484-4.112-23.02-13.064-32.464
				c-3.32-3.496-7.16-6.152-11.496-7.956c8.824-5.28,18.272-15.9,18.272-37.172c0-35.328-22.508-57.276-58.736-57.276H99.24
				c-2.208,0-4,1.792-4,4v206.344c0,2.212,1.792,4,4,4h41.492l56.476,0c0.652-0.024,65.24-3.328,65.304-68.464
				c0.012-0.264,0.036-0.856,0.044-1.728c1.264,12.568,5.64,32.168,19.964,47.464c13.584,14.504,33.06,21.864,57.612,21.864
				c0.016,0,0.036,0,0.052,0c1.372,0.104,33.544,2.212,54.128-16.928c10.868-10.104,16.38-24.156,16.38-41.756
				c0-1.064-0.424-2.076-1.172-2.828c-0.748-0.752-1.768-1.172-2.828-1.172h-34.064c-1.096,0-2.144,0.452-2.9,1.244
				c-0.756,0.792-1.152,1.864-1.096,2.956c0.004,0.064,0.168,6.236-4.664,11.32c-4.552,4.788-12.076,7.216-22.468,7.216
				c-0.14,0.004-13.204,0.244-21.9-8.228c-4.58-4.464-7.224-10.644-7.884-18.412h13.704c2.208,0,4-1.788,4-4c0-2.212-1.792-4-4-4
				h-17.868c-2.208,0-4,1.788-4,4c0,11.948,3.544,21.436,10.528,28.204c11.176,10.828,26.988,10.444,27.536,10.432
				c12.556,0,22.028-3.268,28.152-9.704c4.284-4.5,5.904-9.564,6.512-13.032h26.304c-0.752,13.392-5.348,24.1-13.688,31.868
				c-18,16.772-47.836,14.868-48.42,14.832c-22.536,0-40.06-6.492-52.076-19.296c-20.088-21.412-18.284-53.744-18.256-54.328
				c0-0.184,0.088-18.764,8.88-37.184c11.6-24.308,32.276-36.632,61.452-36.632c20.1,0,35.74,6.152,46.488,18.292
				c17.96,20.284,17.78,52.028,17.164,62.548H361.144z M254.524,292.388c-0.004,0.072-0.004,0.144-0.004,0.212
				c0,57.476-55.276,60.476-57.464,60.572H103.24V154.824h93.812c31.768,0,50.736,18.42,50.736,49.276
				c0,32.068-24.736,34.264-25.772,34.34c-2.156,0.14-3.812,1.964-3.74,4.12c0.072,2.16,1.84,3.872,4,3.872
				c8.656,0,15.692,2.784,20.912,8.28C255.632,267.808,254.536,292.144,254.524,292.388z"/>
		</g>
	</g>
</g>
<g>
	<g>
		<path d="M364.588,235.416c-5.82-5.896-13.68-8.884-23.356-8.884c-26.416,0-36.424,22.812-38.024,34.876
			c-0.152,1.144,0.196,2.296,0.956,3.164c0.76,0.868,1.856,1.364,3.008,1.364h63.56c2.188,0,3.968-1.756,4-3.952
			C374.74,261.328,374.824,245.784,364.588,235.416z M312.144,257.936c2.272-7.928,9.26-23.4,29.088-23.404
			c7.436,0,13.368,2.176,17.624,6.468c5.16,5.2,6.94,12.484,7.552,16.936H312.144z"/>
	</g>
</g>
</svg>